<?xml version="1.0" encoding="iso-8859-1"?>
<!-- Uploaded to: SVG Repo, www.svgrepo.com, Generator: SVG Repo Mixer Tools -->
<svg fill="#000000" height="800px" width="800px" version="1.1" id="Layer_1" xmlns="http://www.w3.org/2000/svg" xmlns:xlink="http://www.w3.org/1999/xlink" 
	 viewBox="0 0 511.998 511.998" xml:space="preserve">
<g>
	<g>
		<path d="M487.548,111.024c-17.128-17.128-39.843-25.164-62.278-24.294c0.87-22.436-7.167-45.152-24.294-62.279
			c-32.6-32.6-85.456-32.6-118.056,0c-31.272,31.272-32.46,81.131-3.737,113.922l-140.811,140.81
			c-32.791-28.723-82.651-27.534-113.922,3.736c-32.6,32.6-32.6,85.456,0,118.056c17.129,17.128,39.844,25.165,62.279,24.294
			c-0.87,22.436,7.167,45.152,24.294,62.279c32.601,32.6,85.456,32.6,118.056,0c31.272-31.272,32.461-81.132,3.736-113.922
			l140.81-140.81c32.791,28.723,82.651,27.534,113.922-3.737C520.148,196.48,520.148,143.624,487.548,111.024z"/>
	</g>
</g>
</svg>